0
SECTION
2
HEADER
9
$INSUNITS
70
4
9
$ACADVER
1
AC1014
9
$HANDSEED
5
FFFF
0
ENDSEC
0
SECTION
2
TABLES
0
TABLE
2
VPORT
5
8
100
AcDbSymbolTable
0
ENDTAB
0
TABLE
2
LTYPE
5
5
100
AcDbSymbolTable
0
LTYPE
5
14
100
AcDbSymbolTableRecord
100
AcDbLinetypeTableRecord
2
BYBLOCK
70
0
0
LTYPE
5
15
100
AcDbSymbolTableRecord
100
AcDbLinetypeTableRecord
2
BYLAYER
70
0
0
ENDTAB
0
TABLE
2
LAYER
5
2
100
AcDbSymbolTable
70
2
0
LAYER
5
50
100
AcDbSymbolTableRecord
100
AcDbLayerTableRecord
2
0
70
0
6
CONTINUOUS
0
ENDTAB
0
TABLE
2
STYLE
5
3
100
AcDbSymbolTable
70
1
0
STYLE
5
11
100
AcDbSymbolTableRecord
100
AcDbTextStyleTableRecord
2
STANDARD
70
0
0
ENDTAB
0
TABLE
2
VIEW
5
6
100
AcDbSymbolTable
70
0
0
ENDTAB
0
TABLE
2
UCS
5
7
100
AcDbSymbolTable
70
0
0
ENDTAB
0
TABLE
2
APPID
5
9
100
AcDbSymbolTable
70
2
0
APPID
5
12
100
AcDbSymbolTableRecord
100
AcDbRegAppTableRecord
2
ACAD
70
0
0
ENDTAB
0
TABLE
2
DIMSTYLE
5
A
100
AcDbSymbolTable
70
1
0
ENDTAB
0
TABLE
2
BLOCK_RECORD
5
1
100
AcDbSymbolTable
70
1
0
BLOCK_RECORD
5
1F
100
AcDbSymbolTableRecord
100
AcDbBlockTableRecord
2
*MODEL_SPACE
0
BLOCK_RECORD
5
1B
100
AcDbSymbolTableRecord
100
AcDbBlockTableRecord
2
*PAPER_SPACE
0
ENDTAB
0
ENDSEC
0
SECTION
2
BLOCKS
0
BLOCK
5
20
100
AcDbEntity
100
AcDbBlockBegin
2
*MODEL_SPACE
0
ENDBLK
5
21
100
AcDbEntity
100
AcDbBlockEnd
0
BLOCK
5
1C
100
AcDbEntity
100
AcDbBlockBegin
2
*PAPER_SPACE
0
ENDBLK
5
1D
100
AcDbEntity
100
AcDbBlockEnd
0
ENDSEC
0
SECTION
2
ENTITIES
0
LWPOLYLINE
5
100
100
AcDbEntity
8
0
100
AcDbPolyline
90
52
70
1
43
0.0
10
33.457631739380034
20
40.612033407498117
10
33.457631739380034
20
32.611832669650894
10
25.457431001532825
20
32.611832669650902
10
25.457431001532818
20
35.61182181895645
10
17.457574773234192
20
35.611821818956443
10
17.457574773234192
20
32.611832669650894
10
11.457596474623095
20
32.611832669650902
10
11.457596474623095
20
35.61182181895645
10
5.4574459212376922
20
35.611821818956443
10
5.4574459212376922
20
32.611832669650894
10
-0.54253237737343252
20
32.611832669650902
10
-0.54253237737343252
20
35.61182181895645
10
-8.5427331152206456
20
35.611821818956443
10
-8.5427331152206456
20
32.611832669650894
10
-16.542244833970663
20
32.611832669650902
10
-16.542244833970663
20
40.612033407498117
10
-13.542255684665117
20
40.612033407498117
10
-13.542255684665117
20
48.611889635796722
10
-16.542244833970663
20
48.611889635796722
10
-16.542244833970663
20
54.611867934407819
10
-13.542255684665117
20
54.611867934407812
10
-13.542255684665117
20
60.611846233018973
10
-16.542244833970663
20
60.61184623301898
10
-16.542244833970663
20
66.611824531630077
10
-13.542255684665117
20
66.611824531630077
10
-13.542255684665117
20
74.611680759928674
10
-16.542244833970663
20
74.611680759928689
10
-16.542244833970663
20
82.61188149777594
10
-8.5427331152206456
20
82.611881497775926
10
-8.5427331152206456
20
79.611892348470349
10
-0.54253237737343252
20
79.611892348470349
10
-0.54253237737343252
20
82.61188149777594
10
5.4574459212376922
20
82.611881497775926
10
5.4574459212376922
20
79.611892348470349
10
11.457596474623095
20
79.611892348470349
10
11.457596474623095
20
82.61188149777594
10
17.457574773234192
20
82.611881497775926
10
17.457574773234196
20
79.611892348470349
10
25.457431001532825
20
79.611892348470349
10
25.457431001532818
20
82.61188149777594
10
33.457631739380034
20
82.611881497775926
10
33.457631739380034
20
74.611680759928674
10
30.457642590074485
20
74.611680759928674
10
30.457642590074485
20
66.611824531630077
10
33.457631739380034
20
66.611824531630063
10
33.457631739380034
20
60.611846233018973
10
30.457642590074485
20
60.61184623301898
10
30.457642590074485
20
54.611867934407819
10
33.457631739380034
20
54.611867934407819
10
33.457631739380034
20
48.611889635796722
10
30.457642590074485
20
48.611889635796722
10
30.457642590074485
20
40.612033407498117
0
CIRCLE
5
101
100
AcDbEntity
8
0
100
AcDbCircle
10
-5.2922448339706651
20
57.611832669650944
30
0
40
0.69999999999999818
0
CIRCLE
5
102
100
AcDbEntity
8
0
100
AcDbCircle
10
5.7077551660293349
20
57.611832669651022
30
0
40
0.69999999999999818
0
CIRCLE
5
103
100
AcDbEntity
8
0
100
AcDbCircle
10
0.20775516602933308
20
57.611832669650987
30
0
40
0.69999999999999818
0
CIRCLE
5
104
100
AcDbEntity
8
0
100
AcDbCircle
10
-10.792244833970665
20
57.611832669650909
30
0
40
0.69999999999999829
0
CIRCLE
5
105
100
AcDbEntity
8
0
100
AcDbCircle
10
19.457755166029337
20
46.611832669651029
30
0
40
6.2500000000000009
0
CIRCLE
5
106
100
AcDbEntity
8
0
100
AcDbCircle
10
19.457755166029109
20
68.61183266965098
30
0
40
6.25
0
CIRCLE
5
107
100
AcDbEntity
8
0
100
AcDbCircle
10
-2.5422448339709014
20
68.61183266965088
30
0
40
6.2500000000000009
0
CIRCLE
5
108
100
AcDbEntity
8
0
100
AcDbCircle
10
-2.542244833970658
20
46.611832669650894
30
0
40
6.2500000000000018
0
CIRCLE
5
109
100
AcDbEntity
8
0
100
AcDbCircle
10
19.457755166029337
20
46.611832669651029
30
0
40
7.3000000000000025
0
CIRCLE
5
110
100
AcDbEntity
8
0
100
AcDbCircle
10
-2.542244833970658
20
46.611832669650894
30
0
40
7.3000000000000025
0
CIRCLE
5
111
100
AcDbEntity
8
0
100
AcDbCircle
10
19.457755166029109
20
68.61183266965098
30
0
40
7.2999999999999998
0
CIRCLE
5
112
100
AcDbEntity
8
0
100
AcDbCircle
10
-2.5422448339709014
20
68.61183266965088
30
0
40
7.3000000000000007
0
CIRCLE
5
113
100
AcDbEntity
8
0
100
AcDbCircle
10
-2.5422448339709014
20
68.61183266965088
30
0
40
6.5000000000000018
0
CIRCLE
5
114
100
AcDbEntity
8
0
100
AcDbCircle
10
-2.542244833970658
20
46.611832669650894
30
0
40
6.5000000000000027
0
CIRCLE
5
115
100
AcDbEntity
8
0
100
AcDbCircle
10
19.457755166029337
20
46.611832669651029
30
0
40
6.5000000000000027
0
CIRCLE
5
116
100
AcDbEntity
8
0
100
AcDbCircle
10
19.457755166029109
20
68.61183266965098
30
0
40
6.5
0
CIRCLE
5
117
100
AcDbEntity
8
0
100
AcDbCircle
10
-10.792244833970665
20
57.611832669650909
30
0
40
0.69999999999999829
0
CIRCLE
5
118
100
AcDbEntity
8
0
100
AcDbCircle
10
-5.2922448339706651
20
57.611832669650944
30
0
40
0.69999999999999818
0
CIRCLE
5
119
100
AcDbEntity
8
0
100
AcDbCircle
10
0.20775516602933308
20
57.611832669650987
30
0
40
0.69999999999999818
0
CIRCLE
5
120
100
AcDbEntity
8
0
100
AcDbCircle
10
5.7077551660293349
20
57.611832669651022
30
0
40
0.69999999999999818
0
LWPOLYLINE
5
121
100
AcDbEntity
8
0
100
AcDbPolyline
90
4
70
1
43
0.0
10
13.919422786805189
20
54.611867934407812
10
-13.542255684665117
20
54.611867934407812
10
-13.542255684665117
20
60.611846233018895
10
13.919422786805189
20
60.611846233018895
0
ENDSEC
0
SECTION
2
OBJECTS
0
DICTIONARY
5
C
100
AcDbDictionary
3
ACAD_GROUP
350
D
3
ACAD_MLINESTYLE
350
17
0
DICTIONARY
5
D
100
AcDbDictionary
0
DICTIONARY
5
1A
330
C
100
AcDbDictionary
0
DICTIONARY
5
17
100
AcDbDictionary
0
ENDSEC
0
EOF
