G75*
%MOIN*%
%OFA0B0*%
%FSLAX25Y25*%
%IPPOS*%
%LPD*%
%AMOC8*
5,1,8,0,0,1.08239X$1,22.5*
%
%ADD10C,0.00300*%
%ADD11C,0.00600*%
%ADD12C,0.00200*%
D10*
X0058364Y0012208D02*
X0060299Y0012208D01*
X0058848Y0013659D01*
X0058848Y0010756D01*
X0082891Y0010284D02*
X0084826Y0010284D01*
X0083859Y0010284D02*
X0083859Y0013186D01*
X0084826Y0012219D01*
X0084905Y0020363D02*
X0082970Y0020363D01*
X0084905Y0020363D02*
X0082970Y0022298D01*
X0082970Y0022781D01*
X0083454Y0023265D01*
X0084421Y0023265D01*
X0084905Y0022781D01*
X0060299Y0022860D02*
X0059815Y0023344D01*
X0058848Y0023344D01*
X0058364Y0022860D01*
X0058364Y0022376D01*
X0058848Y0021893D01*
X0058364Y0021409D01*
X0058364Y0020925D01*
X0058848Y0020441D01*
X0059815Y0020441D01*
X0060299Y0020925D01*
X0059331Y0021893D02*
X0058848Y0021893D01*
D11*
X0055188Y0018562D02*
X0051985Y0018562D01*
X0050918Y0017495D01*
X0050918Y0015360D01*
X0051985Y0014292D01*
X0055188Y0014292D01*
X0055188Y0012157D02*
X0055188Y0018562D01*
X0048743Y0018562D02*
X0048743Y0014292D01*
X0043371Y0015360D02*
X0042304Y0014292D01*
X0040169Y0014292D01*
X0039101Y0015360D01*
X0039101Y0017495D01*
X0040169Y0018562D01*
X0042304Y0018562D01*
X0043371Y0017495D01*
X0043371Y0015360D01*
X0046608Y0018562D02*
X0048743Y0016427D01*
X0046608Y0018562D02*
X0045540Y0018562D01*
X0036926Y0018562D02*
X0033723Y0018562D01*
X0032656Y0017495D01*
X0032656Y0015360D01*
X0033723Y0014292D01*
X0036926Y0014292D01*
X0036926Y0020698D01*
X0029413Y0018562D02*
X0027278Y0018562D01*
X0026210Y0017495D01*
X0026210Y0014292D01*
X0029413Y0014292D01*
X0030480Y0015360D01*
X0029413Y0016427D01*
X0026210Y0016427D01*
X0022967Y0015360D02*
X0021900Y0014292D01*
X0022967Y0015360D02*
X0022967Y0019630D01*
X0021900Y0018562D02*
X0024035Y0018562D01*
X0019738Y0018562D02*
X0018670Y0018562D01*
X0018670Y0014292D01*
X0017603Y0014292D02*
X0019738Y0014292D01*
X0015441Y0015360D02*
X0014373Y0014292D01*
X0012238Y0014292D01*
X0011171Y0015360D01*
X0011171Y0017495D01*
X0012238Y0018562D01*
X0014373Y0018562D01*
X0015441Y0017495D01*
X0015441Y0015360D01*
X0018670Y0020698D02*
X0018670Y0021765D01*
D12*
X0025822Y0005404D02*
X0026189Y0005037D01*
X0026923Y0005037D01*
X0027290Y0005404D01*
X0025822Y0006872D01*
X0025822Y0005404D01*
X0027290Y0005404D02*
X0027290Y0006872D01*
X0026923Y0007239D01*
X0026189Y0007239D01*
X0025822Y0006872D01*
X0029137Y0006872D02*
X0029137Y0006505D01*
X0030605Y0005037D01*
X0029137Y0005037D01*
X0028395Y0005037D02*
X0028028Y0005037D01*
X0028028Y0005404D01*
X0028395Y0005404D01*
X0028395Y0005037D01*
X0031342Y0005037D02*
X0031709Y0005037D01*
X0031709Y0005404D01*
X0031342Y0005404D01*
X0031342Y0005037D01*
X0032451Y0005404D02*
X0032818Y0005037D01*
X0033552Y0005037D01*
X0033919Y0005404D01*
X0032451Y0006872D01*
X0032451Y0005404D01*
X0033919Y0005404D02*
X0033919Y0006872D01*
X0033552Y0007239D01*
X0032818Y0007239D01*
X0032451Y0006872D01*
X0030605Y0006872D02*
X0030238Y0007239D01*
X0029504Y0007239D01*
X0029137Y0006872D01*
X0034661Y0006505D02*
X0035395Y0005037D01*
X0036129Y0006505D01*
X0039081Y0006138D02*
X0039081Y0005404D01*
X0039448Y0005037D01*
X0040549Y0005037D01*
X0040549Y0007239D01*
X0040549Y0006505D02*
X0039448Y0006505D01*
X0039081Y0006138D01*
X0041291Y0006505D02*
X0042392Y0006505D01*
X0042759Y0006138D01*
X0042759Y0005404D01*
X0042392Y0005037D01*
X0041291Y0005037D01*
X0043501Y0005404D02*
X0043501Y0006138D01*
X0043868Y0006505D01*
X0044969Y0006505D01*
X0044969Y0004303D01*
X0044969Y0005037D02*
X0043868Y0005037D01*
X0043501Y0005404D01*
X0045711Y0006138D02*
X0047179Y0006138D01*
X0047921Y0006138D02*
X0048288Y0006505D01*
X0049021Y0006505D01*
X0049388Y0006138D01*
X0049388Y0005404D01*
X0049021Y0005037D01*
X0048288Y0005037D01*
X0047921Y0005404D01*
X0047921Y0006138D01*
X0050130Y0006505D02*
X0051231Y0006505D01*
X0051598Y0006138D01*
X0051598Y0005404D01*
X0051231Y0005037D01*
X0050130Y0005037D01*
X0050130Y0004670D02*
X0050130Y0006505D01*
X0052340Y0006138D02*
X0052707Y0006505D01*
X0053441Y0006505D01*
X0053808Y0006138D01*
X0053808Y0005404D01*
X0053441Y0005037D01*
X0052707Y0005037D01*
X0052340Y0005404D01*
X0052340Y0006138D01*
X0054550Y0006138D02*
X0054550Y0005404D01*
X0054917Y0005037D01*
X0056018Y0005037D01*
X0056018Y0004303D02*
X0056018Y0006505D01*
X0054917Y0006505D01*
X0054550Y0006138D01*
X0050497Y0004303D02*
X0050130Y0004670D01*
X0050497Y0004303D02*
X0050864Y0004303D01*
M02*
