G75*
%MOIN*%
%OFA0B0*%
%FSLAX25Y25*%
%IPPOS*%
%LPD*%
%AMOC8*
5,1,8,0,0,1.08239X$1,22.5*
%
%ADD10C,0.00300*%
%ADD11C,0.00600*%
D10*
X0019260Y0009496D02*
X0021195Y0009496D01*
X0020228Y0009496D02*
X0020228Y0012399D01*
X0019260Y0011431D01*
X0030284Y0011797D02*
X0030768Y0012281D01*
X0031735Y0012281D01*
X0032219Y0011797D01*
X0032219Y0011313D01*
X0030284Y0009378D01*
X0032219Y0009378D01*
X0042134Y0010020D02*
X0042618Y0009536D01*
X0043585Y0009536D01*
X0044069Y0010020D01*
X0044069Y0010503D01*
X0043585Y0010987D01*
X0043102Y0010987D01*
X0043585Y0010987D02*
X0044069Y0011471D01*
X0044069Y0011955D01*
X0043585Y0012438D01*
X0042618Y0012438D01*
X0042134Y0011955D01*
X0054339Y0011026D02*
X0056274Y0011026D01*
X0055790Y0012478D02*
X0054339Y0011026D01*
X0055790Y0009575D02*
X0055790Y0012478D01*
D11*
X0061866Y0009248D02*
X0061866Y0024248D01*
X0064366Y0026748D01*
X0069366Y0026748D01*
X0071866Y0024248D01*
X0074366Y0026748D01*
X0079366Y0026748D01*
X0081866Y0024248D01*
X0081866Y0009248D01*
X0079366Y0006748D01*
X0074366Y0006748D01*
X0071866Y0009248D01*
X0069366Y0006748D01*
X0064366Y0006748D01*
X0061866Y0009248D01*
X0081537Y0006669D02*
X0081539Y0006722D01*
X0081545Y0006775D01*
X0081555Y0006828D01*
X0081568Y0006880D01*
X0081586Y0006930D01*
X0081607Y0006979D01*
X0081632Y0007027D01*
X0081660Y0007072D01*
X0081691Y0007115D01*
X0081726Y0007156D01*
X0081763Y0007194D01*
X0081803Y0007229D01*
X0081846Y0007262D01*
X0081891Y0007291D01*
X0081938Y0007316D01*
X0081986Y0007338D01*
X0082037Y0007357D01*
X0082088Y0007371D01*
X0082140Y0007382D01*
X0082193Y0007389D01*
X0082247Y0007392D01*
X0082300Y0007391D01*
X0082353Y0007386D01*
X0082406Y0007377D01*
X0082458Y0007364D01*
X0082509Y0007348D01*
X0082558Y0007328D01*
X0082606Y0007304D01*
X0082652Y0007277D01*
X0082696Y0007246D01*
X0082737Y0007212D01*
X0082776Y0007175D01*
X0082812Y0007136D01*
X0082845Y0007094D01*
X0082875Y0007050D01*
X0082901Y0007003D01*
X0082924Y0006955D01*
X0082943Y0006905D01*
X0082959Y0006854D01*
X0082971Y0006802D01*
X0082979Y0006749D01*
X0082983Y0006696D01*
X0082983Y0006642D01*
X0082979Y0006589D01*
X0082971Y0006536D01*
X0082959Y0006484D01*
X0082943Y0006433D01*
X0082924Y0006383D01*
X0082901Y0006335D01*
X0082875Y0006288D01*
X0082845Y0006244D01*
X0082812Y0006202D01*
X0082776Y0006163D01*
X0082737Y0006126D01*
X0082696Y0006092D01*
X0082652Y0006061D01*
X0082606Y0006034D01*
X0082558Y0006010D01*
X0082509Y0005990D01*
X0082458Y0005974D01*
X0082406Y0005961D01*
X0082353Y0005952D01*
X0082300Y0005947D01*
X0082247Y0005946D01*
X0082193Y0005949D01*
X0082140Y0005956D01*
X0082088Y0005967D01*
X0082037Y0005981D01*
X0081986Y0006000D01*
X0081938Y0006022D01*
X0081891Y0006047D01*
X0081846Y0006076D01*
X0081803Y0006109D01*
X0081763Y0006144D01*
X0081726Y0006182D01*
X0081691Y0006223D01*
X0081660Y0006266D01*
X0081632Y0006311D01*
X0081607Y0006359D01*
X0081586Y0006408D01*
X0081568Y0006458D01*
X0081555Y0006510D01*
X0081545Y0006563D01*
X0081539Y0006616D01*
X0081537Y0006669D01*
X0019926Y0020528D02*
X0019928Y0020578D01*
X0019934Y0020628D01*
X0019944Y0020678D01*
X0019957Y0020726D01*
X0019975Y0020773D01*
X0019996Y0020819D01*
X0020020Y0020863D01*
X0020048Y0020905D01*
X0020080Y0020944D01*
X0020114Y0020981D01*
X0020151Y0021015D01*
X0020190Y0021047D01*
X0020232Y0021075D01*
X0020276Y0021099D01*
X0020322Y0021120D01*
X0020369Y0021138D01*
X0020417Y0021151D01*
X0020467Y0021161D01*
X0020517Y0021167D01*
X0020567Y0021169D01*
X0020617Y0021167D01*
X0020667Y0021161D01*
X0020717Y0021151D01*
X0020765Y0021138D01*
X0020812Y0021120D01*
X0020858Y0021099D01*
X0020902Y0021075D01*
X0020944Y0021047D01*
X0020983Y0021015D01*
X0021020Y0020981D01*
X0021054Y0020944D01*
X0021086Y0020905D01*
X0021114Y0020863D01*
X0021138Y0020819D01*
X0021159Y0020773D01*
X0021177Y0020726D01*
X0021190Y0020678D01*
X0021200Y0020628D01*
X0021206Y0020578D01*
X0021208Y0020528D01*
X0021206Y0020478D01*
X0021200Y0020428D01*
X0021190Y0020378D01*
X0021177Y0020330D01*
X0021159Y0020283D01*
X0021138Y0020237D01*
X0021114Y0020193D01*
X0021086Y0020151D01*
X0021054Y0020112D01*
X0021020Y0020075D01*
X0020983Y0020041D01*
X0020944Y0020009D01*
X0020902Y0019981D01*
X0020858Y0019957D01*
X0020812Y0019936D01*
X0020765Y0019918D01*
X0020717Y0019905D01*
X0020667Y0019895D01*
X0020617Y0019889D01*
X0020567Y0019887D01*
X0020517Y0019889D01*
X0020467Y0019895D01*
X0020417Y0019905D01*
X0020369Y0019918D01*
X0020322Y0019936D01*
X0020276Y0019957D01*
X0020232Y0019981D01*
X0020190Y0020009D01*
X0020151Y0020041D01*
X0020114Y0020075D01*
X0020080Y0020112D01*
X0020048Y0020151D01*
X0020020Y0020193D01*
X0019996Y0020237D01*
X0019975Y0020283D01*
X0019957Y0020330D01*
X0019944Y0020378D01*
X0019934Y0020428D01*
X0019928Y0020478D01*
X0019926Y0020528D01*
M02*
